# Blender 4.4.3
# www.blender.org
mtllib Tree_Handpainted.mtl
o tree_model
v -1.096184 5.739868 1.813076
v -0.042250 4.289739 0.543314
v -1.331719 5.755196 1.725736
v -0.561971 4.264747 0.104559
v -1.018450 5.793290 1.608181
v -0.063750 4.892997 0.533787
v -1.247961 5.809930 1.523023
v -0.553663 4.913874 0.063260
v -0.463151 4.917709 0.446510
v -0.054380 4.734809 0.694298
v -0.919808 5.191345 1.390172
v -1.046271 5.314636 1.198845
v -1.096120 5.192234 1.305936
v -0.868653 5.312508 1.283517
v -1.325685 5.811295 1.638167
v -1.233834 5.765666 1.812719
v -0.697903 4.751017 0.140629
v -1.137701 5.830908 1.569454
v -1.045751 5.791888 1.740905
v -0.378853 4.120836 0.430950
v -1.101960 5.258743 1.237321
v -0.950807 5.337119 1.226084
v -1.017818 5.171515 1.367958
v -0.863705 5.256695 1.352918
v -0.630722 4.731607 1.005313
v -0.823644 4.972094 0.785874
v -0.851126 4.733327 0.848348
v -0.596709 4.964345 0.946467
v -0.882685 4.876605 0.798286
v -0.724503 4.997396 0.879836
v -0.757793 4.685535 0.951650
v -0.580328 4.868133 1.010261
v -1.548906 5.603862 -0.856824
v -1.442502 5.618713 -1.105669
v -0.065026 4.213558 -0.598437
v -1.336266 5.664892 -0.764443
v -1.232132 5.681574 -1.011391
v -0.083371 4.926390 -0.550970
v -0.445900 4.957935 -0.352371
v -1.136614 5.086978 -0.703263
v -0.936103 5.220284 -0.831350
v -1.043425 5.092390 -0.889221
v -1.032546 5.211720 -0.642270
v -1.341277 5.672126 -1.092726
v -1.531598 5.621354 -0.998848
v -0.069644 4.745195 -0.744045
v -1.277090 5.695765 -0.886471
v -1.467514 5.652705 -0.792932
v -0.406512 4.043086 -0.322227
v -0.972735 5.162077 -0.894453
v -0.969214 5.238855 -0.727932
v -1.110637 5.066833 -0.806893
v -1.102733 5.152421 -0.640506
v -0.822576 4.748753 -0.428764
v -0.586352 5.014680 -0.688439
v -0.635442 4.742083 -0.726023
v -0.778835 5.001177 -0.393055
v -0.583820 4.912961 -0.771993
v -0.693976 5.038925 -0.550019
v -0.755350 4.680012 -0.592316
v -0.841102 4.901594 -0.364469
v -0.359220 0.009050 0.420379
v -0.428576 0.019098 -0.343809
v -0.008133 -0.004135 0.470768
v -0.213180 2.935232 0.217782
v -0.248124 2.892945 -0.184534
v -0.095072 0.003805 -0.455294
v -0.465808 0.002125 0.043743
v -0.068649 2.901331 -0.305576
v -0.051726 -0.035857 0.005605
v -0.302740 2.938735 0.032877
v -0.032186 2.952739 0.274414
v -0.226778 1.726508 0.239723
v -0.266017 1.722153 -0.193696
v -0.077850 1.493469 -0.284257
v -0.304776 1.457186 0.028632
v -0.025613 1.484786 0.284968
v -0.076873 4.908655 -0.005944
v 1.049487 5.670321 -1.695894
v 1.299044 5.687210 -1.606959
v 0.472889 4.238382 -0.107590
v 0.967856 5.725458 -1.480076
v 1.211737 5.743357 -1.392431
v 0.442287 4.909191 -0.058984
v 0.334333 4.943182 -0.511686
v 0.853521 5.143607 -1.314680
v 0.989290 5.260303 -1.118773
v 1.039491 5.137989 -1.230288
v 0.803137 5.268351 -1.202124
v 1.289698 5.739779 -1.505812
v 1.190940 5.691527 -1.688591
v 0.606059 4.739817 -0.131262
v 1.090190 5.759094 -1.431456
v 0.992343 5.719077 -1.612084
v 0.292015 4.020361 -0.470438
v 1.047352 5.202564 -1.160122
v 0.891233 5.286502 -1.144480
v 0.957435 5.117642 -1.293270
v 0.796339 5.213872 -1.275271
v 0.503323 4.730916 -0.998516
v 0.727432 4.982023 -0.753918
v 0.752821 4.727715 -0.812507
v 0.477962 5.002456 -0.933387
v 0.792261 4.882253 -0.766823
v 0.625486 5.020502 -0.861468
v 0.648880 4.660185 -0.933045
v 0.456179 4.903478 -1.011620
v 1.377673 5.714618 0.907772
v 1.273130 5.733017 1.164855
v 1.154359 5.769807 0.811242
v 1.050817 5.788737 1.062212
v 0.329172 4.929323 0.348473
v 1.111933 5.147345 0.835404
v 0.914750 5.266235 0.960144
v 1.030817 5.138721 1.023131
v 0.998912 5.276278 0.767550
v 1.162158 5.781670 1.146828
v 1.359858 5.732295 1.052319
v 1.092948 5.800820 0.933401
v 1.288076 5.759546 0.839650
v 0.296749 4.099053 0.304517
v 0.955955 5.203575 1.023257
v 0.937490 5.295084 0.853860
v 1.091151 5.120284 0.941239
v 1.070371 5.217851 0.767053
v 0.769516 4.753769 0.507969
v 0.539901 4.973656 0.743323
v 0.580294 4.738337 0.752664
v 0.747810 4.998427 0.481653
v 0.534207 4.871985 0.799419
v 0.662285 5.016623 0.633543
v 0.693206 4.696473 0.648540
v 0.805119 4.904375 0.456279
v 0.252370 0.018106 -0.404672
v 0.326199 0.010385 0.356308
v 0.121950 2.882650 -0.235072
v 0.139473 2.928447 0.178180
v 0.360098 0.005911 -0.032099
v 0.203771 2.928655 -0.031464
v 0.122871 1.533893 -0.229313
v 0.163631 1.536109 0.204587
v 0.199495 1.438688 -0.017167
v 1.804922 5.404431 -1.216846
v 1.487797 8.038357 -1.508935
v 2.027108 5.431586 1.836317
v 1.707537 8.230707 1.557973
v -1.862298 5.367357 -0.703527
v -2.104975 7.909703 -1.545387
v -1.719406 5.420271 2.377310
v -1.156851 8.097267 2.542847
v 2.019508 5.437502 0.867146
v 1.778470 5.703915 0.015152
v 1.672019 5.683815 -0.581780
v 2.932363 6.243002 -1.749849
v 2.433378 7.499035 -1.845779
v 1.664605 7.743010 -1.675654
v 1.825539 8.321801 -0.726549
v 2.098437 8.618819 0.119849
v 2.019402 8.474188 1.057457
v 1.864693 7.761826 1.617951
v 2.317190 7.084184 1.977754
v 2.353906 6.226200 2.040581
v -0.577252 5.193414 2.439819
v 0.330434 5.476753 2.159675
v 1.159613 5.334824 2.185281
v 1.072443 8.397178 1.756307
v 0.314208 8.491011 1.990452
v -0.434029 8.527177 2.532816
v -1.379039 7.464812 2.394891
v -1.827854 6.828235 2.743454
v -1.986311 6.049873 2.739316
v -1.885837 5.622218 -0.081342
v -1.983156 5.539237 0.483143
v -2.102669 5.214900 1.363118
v -1.709760 8.189175 2.050598
v -2.531475 8.488334 0.867211
v -2.811247 8.469594 -0.619348
v -2.259310 7.609968 -1.797966
v -2.169102 7.149799 -1.631563
v -2.879664 5.506526 -1.101984
v 0.788244 5.398698 -1.438403
v -0.324040 5.591905 -1.472473
v -1.266034 5.371148 -1.159833
v -1.109326 8.225629 -1.692027
v -0.127025 8.487372 -1.686996
v 0.617366 8.498953 -1.890516
v 2.800036 6.147898 -0.759057
v 2.964281 7.144773 -0.893390
v 2.154417 7.677568 -0.886875
v 2.924366 6.078144 -0.000392
v 2.871577 7.185583 0.100752
v 2.383942 7.753804 0.042208
v 2.836681 6.248778 0.937995
v 2.681172 7.222389 0.990270
v 2.325971 7.779343 0.937009
v 1.354647 6.221914 2.708113
v 1.389910 7.088542 2.594722
v 1.132216 7.769818 2.032778
v 0.424651 6.356897 2.757317
v 0.397740 7.160608 2.631137
v 0.359731 7.854587 2.438203
v -0.591890 6.239241 2.876850
v -0.563833 7.177644 2.907901
v -0.521238 7.841021 2.746577
v -2.792653 6.083573 1.588597
v -2.774288 6.743975 1.739892
v -2.474468 7.330650 1.756096
v -2.854799 5.930279 0.754714
v -2.807786 6.784395 0.712946
v -2.871406 7.534242 0.694507
v -2.880713 5.760174 0.088823
v -3.100429 6.701450 -0.241736
v -2.800282 7.455101 -0.548991
v -1.755908 5.941226 -2.430790
v -1.226220 7.402391 -2.193040
v -1.083033 7.640942 -1.810960
v -0.541841 6.122887 -3.150264
v -0.414491 7.555885 -2.347687
v -0.259152 7.865723 -1.882789
v 1.457783 6.314874 -3.246363
v 0.857278 7.677032 -2.398571
v 0.622301 7.963992 -2.232643
v 0.983679 5.238122 1.009501
v 0.125328 5.287972 1.122578
v -0.716606 5.007481 1.245830
v 0.900224 5.763637 0.199697
v -0.032940 5.808115 0.422177
v -1.022964 5.532741 0.454128
v 0.790666 5.796504 -0.530315
v -0.171865 5.905969 -0.414821
v -1.126760 5.711836 -0.243567
v -0.305938 9.083508 1.566319
v 0.139266 9.008760 1.140434
v 0.996882 8.910450 1.186442
v -0.592393 9.356899 0.541247
v 0.075535 9.136686 0.322460
v 0.977682 9.282721 0.293677
v -0.852914 9.380317 -0.790726
v 0.117956 9.246119 -0.771109
v 1.058894 9.291312 -0.672416
vn -0.8551 -0.5166 0.0427
vn -0.8381 -0.5211 0.1613
vn -0.9016 -0.0431 -0.4305
vn -0.9345 0.0299 -0.3548
vn -0.8159 -0.5197 0.2536
vn -0.9249 -0.1249 -0.3591
vn -0.4470 0.3734 -0.8129
vn -0.3574 0.5210 -0.7751
vn -0.4108 0.7825 -0.4680
vn 0.3282 0.7012 -0.6329
vn 0.2348 0.9116 -0.3373
vn 0.3115 0.6078 -0.7305
vn 0.8627 0.4471 -0.2364
vn 0.8070 0.5664 -0.1674
vn 0.5752 0.8030 0.1559
vn 0.2520 -0.5064 0.8247
vn 0.3325 -0.4866 0.8079
vn -0.3480 -0.6822 0.6430
vn -0.3807 -0.7422 0.5515
vn 0.3234 -0.5005 0.8031
vn -0.3321 -0.6458 0.6875
vn 0.8707 0.0416 0.4901
vn 0.6812 0.0951 0.7259
vn 0.8897 -0.0443 0.4543
vn 0.2072 0.1522 0.9664
vn 0.1528 -0.4319 0.8889
vn 0.0361 0.9572 0.2870
vn -0.5481 -0.4867 0.6802
vn -0.9216 -0.3842 0.0552
vn 0.0745 0.9961 -0.0479
vn -0.2873 0.9539 0.0868
vn -0.9896 0.1413 -0.0267
vn -0.1859 -0.4697 -0.8630
vn -0.1838 -0.5199 -0.8342
vn 0.4008 0.0112 -0.9161
vn 0.2543 0.1693 -0.9522
vn -0.2483 -0.5118 -0.8224
vn 0.3843 -0.0938 -0.9184
vn 0.8241 0.3930 -0.4080
vn 0.7186 0.6066 -0.3400
vn 0.4081 0.8528 -0.3259
vn 0.5803 0.7459 0.3270
vn 0.2925 0.9317 0.2153
vn 0.7229 0.5944 0.3523
vn 0.2064 0.3983 0.8937
vn 0.0965 0.6046 0.7906
vn -0.1682 0.8509 0.4976
vn -0.8786 -0.4574 0.1373
vn -0.8022 -0.5249 0.2846
vn -0.6302 -0.6943 -0.3477
vn -0.6342 -0.6592 -0.4040
vn -0.7972 -0.5319 0.2854
vn -0.6754 -0.6487 -0.3507
vn -0.5579 0.0093 0.8298
vn -0.8222 0.1580 0.5468
vn -0.4733 -0.0986 0.8754
vn -0.7724 -0.3569 -0.5253
vn -0.1965 -0.3958 -0.8971
vn 0.1150 0.9872 0.1104
vn -0.0053 0.9687 -0.2484
vn -0.2294 0.1806 -0.9564
vn -0.8054 0.0341 -0.5918
vn -0.8141 -0.0856 -0.5744
vn -0.1411 -0.1199 -0.9827
vn -0.0657 0.0785 -0.9947
vn 0.0080 -0.9987 0.0497
vn -0.0675 -0.9960 0.0578
vn -0.0759 -0.9971 -0.0040
vn 0.0017 -0.9999 -0.0106
vn -0.0840 -0.9943 -0.0658
vn -0.0050 -0.9975 -0.0708
vn -0.6559 0.0391 0.7539
vn -0.6434 -0.1037 0.7584
vn -0.9908 -0.1007 0.0900
vn -0.9922 0.0851 0.0908
vn 0.1232 -0.0989 0.9874
vn 0.1202 0.0900 0.9887
vn 0.1103 0.1239 0.9861
vn -0.6443 0.1337 0.7530
vn -0.9901 0.1061 0.0916
vn -0.7795 0.1302 -0.6128
vn -0.0703 0.1195 -0.9903
vn 0.0104 0.9994 0.0316
vn 0.8640 -0.5034 -0.0029
vn 0.8197 -0.5579 -0.1297
vn 0.8786 -0.1074 0.4653
vn 0.9125 0.0187 0.4086
vn 0.8051 -0.5385 -0.2489
vn 0.9076 -0.1787 0.3800
vn 0.4640 0.2883 0.8376
vn 0.3748 0.4691 0.7997
vn 0.4009 0.7767 0.4858
vn -0.2785 0.7106 0.6461
vn -0.1658 0.9231 0.3470
vn -0.2887 0.5730 0.7671
vn -0.8410 0.4745 0.2600
vn -0.7409 0.6544 0.1513
vn -0.4785 0.8609 -0.1730
vn -0.2215 -0.4352 -0.8727
vn -0.3061 -0.4385 -0.8450
vn 0.3468 -0.6822 -0.6437
vn 0.4148 -0.7091 -0.5702
vn -0.3114 -0.4644 -0.8290
vn 0.3274 -0.6316 -0.7028
vn -0.8225 0.1230 -0.5554
vn -0.6036 0.1804 -0.7766
vn -0.8847 0.0134 -0.4660
vn 0.6031 -0.4428 -0.6635
vn 0.9220 -0.3871 0.0007
vn -0.0394 0.9940 0.1019
vn 0.2753 0.9606 -0.0377
vn 0.9875 0.1571 0.0124
vn 0.0928 -0.5460 0.8327
vn 0.2252 -0.4902 0.8420
vn -0.4230 -0.0579 0.9043
vn -0.3295 0.0431 0.9432
vn 0.3100 -0.3316 0.8911
vn -0.4237 -0.0579 0.9039
vn -0.9167 0.1972 0.3476
vn -0.8304 0.4112 0.3761
vn -0.4744 0.7925 0.3834
vn -0.7474 0.5736 -0.3353
vn -0.3759 0.9075 -0.1878
vn -0.8772 0.3101 -0.3664
vn -0.3603 0.2129 -0.9082
vn -0.1958 0.4972 -0.8453
vn 0.1444 0.8539 -0.5000
vn 0.8641 -0.4922 -0.1048
vn 0.8573 -0.4573 -0.2365
vn 0.6994 -0.6144 0.3651
vn 0.5606 -0.7178 0.4129
vn 0.8774 -0.3510 -0.3270
vn 0.8215 -0.4351 0.3686
vn 0.5827 0.0007 -0.8127
vn 0.8260 0.1451 -0.5447
vn 0.4380 -0.0769 -0.8957
vn 0.7008 -0.4068 0.5860
vn -0.1088 0.9930 -0.0467
vn 0.7828 0.0643 0.6189
vn 0.7734 -0.0809 0.6287
vn 0.0747 -0.9943 -0.0754
vn 0.0793 -0.9967 -0.0169
vn 0.0835 -0.9957 0.0413
vn 0.6791 0.0506 -0.7323
vn 0.6824 -0.1171 -0.7215
vn 0.9939 -0.1060 -0.0311
vn 0.9936 0.0741 -0.0848
vn 0.6580 0.1355 -0.7407
vn 0.9891 0.1142 -0.0933
vn 0.7747 0.1402 0.6166
vn 0.8432 -0.5375 -0.0115
vn 0.9041 0.4150 -0.1015
vn 0.9255 0.3772 0.0346
vn 0.8423 -0.5385 -0.0243
vn 0.6715 0.7078 -0.2195
vn 0.8301 0.5532 -0.0695
vn 0.8892 0.3726 0.2656
vn 0.9308 -0.3224 0.1722
vn 0.8309 0.4814 0.2791
vn 0.2852 -0.9584 -0.0079
vn 0.8485 -0.3304 -0.4133
vn 0.1553 -0.9779 0.1403
vn 0.6324 0.6592 -0.4069
vn 0.4912 0.7611 -0.4236
vn 0.6162 0.5505 -0.5632
vn 0.7272 0.5686 -0.3844
vn 0.7720 0.6345 -0.0380
vn 0.7056 0.5907 0.3914
vn 0.5354 0.4763 0.6975
vn 0.5997 0.4954 0.6284
vn 0.7109 0.3523 0.6087
vn 0.7631 -0.2376 0.6011
vn 0.4051 -0.9101 -0.0876
vn 0.5152 -0.7746 0.3669
vn 0.1886 -0.9687 -0.1613
vn 0.2642 -0.2134 0.9406
vn 0.3411 0.3459 0.8741
vn 0.2072 0.2469 0.9466
vn 0.1187 -0.1887 0.9748
vn 0.3684 0.5046 0.7808
vn 0.3451 0.4087 0.8449
vn -0.0113 0.2185 0.9758
vn 0.0698 -0.2217 0.9726
vn 0.0241 0.2951 0.9552
vn 0.1200 -0.8333 0.5397
vn 0.3431 0.6146 0.7104
vn 0.3683 0.6563 0.6585
vn 0.0406 0.6416 0.7659
vn -0.4114 0.4031 0.8175
vn -0.4664 0.3266 0.8221
vn -0.4661 0.2355 0.8528
vn -0.4974 -0.2826 0.8202
vn 0.1044 -0.8054 0.5835
vn -0.3454 -0.7406 0.5764
vn 0.1185 -0.8276 0.5487
vn -0.9094 -0.3163 0.2700
vn -0.8929 0.1770 0.4139
vn -0.9863 0.0863 0.1407
vn -0.8701 -0.4894 0.0579
vn -0.7655 0.3530 0.5379
vn -0.9523 0.2160 0.2156
vn -0.9913 0.0598 -0.1172
vn -0.7752 -0.6284 0.0648
vn -0.9608 0.0997 -0.2587
vn -0.4568 -0.8893 0.0219
vn -0.5589 0.5416 0.6280
vn -0.7120 0.6344 0.3010
vn -0.7778 0.5686 -0.2678
vn -0.4811 0.4345 -0.7615
vn -0.5798 0.2282 -0.7821
vn -0.7359 0.1418 -0.6621
vn -0.7136 -0.6056 -0.3522
vn -0.0437 -0.9940 0.1000
vn -0.0012 -0.9954 0.0961
vn -0.2510 -0.9518 -0.1761
vn -0.4616 -0.4164 -0.7833
vn -0.4255 0.4602 -0.7792
vn -0.2453 0.6395 -0.7286
vn -0.2027 -0.3169 -0.9266
vn -0.2106 0.5218 -0.8267
vn -0.2181 0.5535 -0.8038
vn 0.1666 0.6815 -0.7126
vn 0.2914 -0.2365 -0.9269
vn 0.0362 0.6783 -0.7339
vn 0.0925 -0.9943 -0.0539
vn -0.1744 0.5052 -0.8452
vn -0.1357 0.5982 -0.7898
vn 0.1563 0.6524 -0.7416
vn 0.0138 -0.9990 -0.0427
vn 0.0357 -0.9969 -0.0698
vn -0.0269 -0.9779 -0.2071
vn 0.0764 -0.9633 -0.2573
vn 0.0395 -0.9256 -0.3763
vn -0.0869 -0.9603 -0.2651
vn 0.0754 -0.9797 -0.1857
vn 0.0704 -0.9252 -0.3729
vn 0.0694 -0.9935 0.0908
vn -0.1026 -0.9792 0.1753
vn 0.1909 -0.9801 0.0537
vn 0.0666 0.9078 0.4141
vn 0.2260 0.9164 0.3303
vn 0.1071 0.9864 0.1250
vn -0.0631 0.9822 0.1770
vn 0.2521 0.8646 0.4347
vn 0.2392 0.9644 0.1123
vn 0.0012 0.9417 -0.3364
vn -0.1616 0.9230 -0.3493
vn 0.3160 0.8941 -0.3174
vt 0.888093 0.512548
vt 0.910427 0.472044
vt 0.916059 0.474688
vt 0.898443 0.513652
vt 0.934977 0.430904
vt 0.940419 0.434825
vt 0.943242 0.443330
vt 0.920891 0.477565
vt 0.906154 0.515070
vt 0.926823 0.480682
vt 0.916016 0.513426
vt 0.949994 0.447307
vt 0.932143 0.902176
vt 0.955673 0.936511
vt 0.947312 0.938735
vt 0.925483 0.904512
vt 0.920683 0.868591
vt 0.909787 0.867100
vt 0.891447 0.868841
vt 0.914296 0.909976
vt 0.908498 0.913787
vt 0.883014 0.874392
vt 0.938861 0.951108
vt 0.933346 0.958570
vt 0.904545 0.468896
vt 0.928713 0.425172
vt 0.879996 0.506825
vt 0.920058 0.907228
vt 0.901469 0.868099
vt 0.944015 0.946915
vt 0.895449 0.819440
vt 0.863056 0.816056
vt 0.910809 0.818297
vt 0.840935 0.547210
vt 0.858262 0.566435
vt 0.843405 0.832526
vt 0.930099 0.834731
vt 0.906704 0.569720
vt 0.920565 0.548613
vt 0.892377 0.564937
vt 0.777090 0.774457
vt 0.796030 0.741558
vt 0.801714 0.744613
vt 0.789656 0.776083
vt 0.819620 0.703180
vt 0.825129 0.708220
vt 0.828404 0.716157
vt 0.807130 0.747725
vt 0.798897 0.776740
vt 0.814011 0.750767
vt 0.810620 0.774675
vt 0.835031 0.720848
vt 0.926773 0.631778
vt 0.949994 0.661600
vt 0.941816 0.665747
vt 0.919483 0.634302
vt 0.921924 0.607760
vt 0.909400 0.605142
vt 0.888766 0.607394
vt 0.907990 0.640692
vt 0.902047 0.645050
vt 0.878613 0.615579
vt 0.933198 0.679164
vt 0.926725 0.686228
vt 0.790016 0.737872
vt 0.812769 0.697440
vt 0.767382 0.766299
vt 0.913691 0.637369
vt 0.900443 0.605338
vt 0.938380 0.673656
vt 0.723604 0.791432
vt 0.743321 0.814957
vt 0.837490 0.588436
vt 0.925319 0.587663
vt 0.798767 0.811954
vt 0.816311 0.794170
vt 0.781260 0.815588
vt 0.964117 0.227061
vt 0.958935 0.306134
vt 0.944101 0.306423
vt 0.951295 0.211131
vt 0.964117 0.385142
vt 0.935592 0.397449
vt 0.541877 0.873189
vt 0.563803 0.882872
vt 0.563803 0.909299
vt 0.536202 0.904163
vt 0.554313 0.933835
vt 0.530567 0.934894
vt 0.945472 0.033228
vt 0.938701 0.114559
vt 0.924702 0.114179
vt 0.931941 0.014321
vt 0.945472 0.196552
vt 0.920561 0.205942
vt 0.892953 0.186853
vt 0.909827 0.109470
vt 0.915702 0.030719
vt 0.980339 0.517787
vt 0.976029 0.425172
vt 0.999550 0.436304
vt 0.993333 0.518499
vt 0.987131 0.616947
vt 0.999550 0.599994
vt 0.655222 0.950398
vt 0.664290 0.849723
vt 0.679124 0.834295
vt 0.679124 0.950967
vt 0.604438 0.834295
vt 0.605378 0.932911
vt 0.590753 0.951236
vt 0.578258 0.836226
vt 0.630800 0.835035
vt 0.620316 0.951236
vt 0.454569 0.873189
vt 0.454569 0.988876
vt 0.439678 0.974266
vt 0.430863 0.873638
vt 0.946591 0.552125
vt 0.933913 0.584352
vt 0.842304 0.795078
vt 0.830219 0.821476
vt 0.822531 0.076071
vt 0.853881 0.044880
vt 0.858509 0.049058
vt 0.833342 0.079792
vt 0.889012 0.014045
vt 0.893100 0.020317
vt 0.893583 0.029312
vt 0.862356 0.053742
vt 0.840589 0.083866
vt 0.867003 0.059023
vt 0.851538 0.085201
vt 0.897866 0.036208
vt 0.819920 0.892340
vt 0.842304 0.923510
vt 0.833794 0.926025
vt 0.812731 0.894171
vt 0.811227 0.862620
vt 0.799815 0.859897
vt 0.778502 0.861951
vt 0.800905 0.900118
vt 0.795123 0.904694
vt 0.769255 0.869067
vt 0.824974 0.938919
vt 0.819412 0.946530
vt 0.848667 0.040316
vt 0.883397 0.006950
vt 0.814650 0.067256
vt 0.806924 0.896970
vt 0.790883 0.861162
vt 0.830155 0.933740
vt 0.763999 0.091978
vt 0.778407 0.117017
vt 0.723265 0.834763
vt 0.816223 0.831938
vt 0.825865 0.134845
vt 0.849120 0.116419
vt 0.812113 0.126185
vt 0.892909 0.772323
vt 0.913438 0.734491
vt 0.918769 0.737363
vt 0.903059 0.773474
vt 0.940254 0.703623
vt 0.946015 0.708690
vt 0.949989 0.716504
vt 0.924052 0.740295
vt 0.911066 0.773615
vt 0.930197 0.744315
vt 0.922540 0.770919
vt 0.955673 0.722798
vt 0.825750 0.210566
vt 0.843891 0.240100
vt 0.835322 0.243110
vt 0.818189 0.211651
vt 0.825337 0.181735
vt 0.814294 0.176357
vt 0.795386 0.171121
vt 0.804599 0.213869
vt 0.797602 0.216399
vt 0.784345 0.175035
vt 0.822251 0.252420
vt 0.814284 0.257940
vt 0.907804 0.731151
vt 0.933813 0.697440
vt 0.884590 0.765494
vt 0.811695 0.212472
vt 0.806400 0.173982
vt 0.829098 0.249048
vt 0.843204 0.795946
vt 0.755080 0.133356
vt 0.838372 0.156327
vt 0.929660 0.799264
vt 0.973367 0.614537
vt 0.967163 0.520852
vt 0.950894 0.441967
vt 0.508871 0.925281
vt 0.508721 0.899088
vt 0.518027 0.874467
vt 0.882033 0.396758
vt 0.876661 0.305887
vt 0.891315 0.301543
vt 0.897298 0.402285
vt 0.857443 0.228794
vt 0.882376 0.211131
vt 0.911861 0.221164
vt 0.906242 0.301262
vt 0.911861 0.395120
vt 0.912761 0.381097
vt 0.930453 0.303525
vt 0.937439 0.212756
vt 0.426125 0.978766
vt 0.407478 0.877307
vt 0.481725 0.873189
vt 0.481253 0.970314
vt 0.466260 0.977187
vt 0.455469 0.873887
vt 0.507821 0.874681
vt 0.496245 0.977187
vt 0.631700 0.946609
vt 0.650984 0.844553
vt 0.871514 0.130954
vt 0.849712 0.157917
vt 0.955606 0.801131
vt 0.941832 0.830090
vt 0.686981 0.338269
vt 0.673722 0.270301
vt 0.737976 0.260873
vt 0.740505 0.334693
vt 0.665582 0.207010
vt 0.730495 0.210746
vt 0.722365 0.505697
vt 0.721024 0.581131
vt 0.660298 0.588732
vt 0.659576 0.522147
vt 0.722365 0.632138
vt 0.661701 0.633339
vt 0.654698 0.424272
vt 0.617650 0.329726
vt 0.701188 0.422749
vt 0.605162 0.239819
vt 0.606540 0.184710
vt 0.617153 0.161519
vt 0.677531 0.158022
vt 0.740321 0.150122
vt 0.715605 0.692904
vt 0.654469 0.683172
vt 0.613530 0.680116
vt 0.606836 0.646685
vt 0.588457 0.588463
vt 0.578258 0.530863
vt 0.263581 0.361876
vt 0.199226 0.315654
vt 0.262221 0.262103
vt 0.296169 0.308347
vt 0.708576 0.425172
vt 0.649029 0.444679
vt 0.740374 0.415486
vt 0.339478 0.244097
vt 0.326125 0.192327
vt 0.388678 0.171152
vt 0.399432 0.228488
vt 0.319998 0.131835
vt 0.380799 0.121246
vt 0.359506 0.548634
vt 0.355202 0.604725
vt 0.287399 0.599236
vt 0.291082 0.537089
vt 0.351340 0.654151
vt 0.287767 0.645728
vt 0.348662 0.304820
vt 0.252445 0.200978
vt 0.260511 0.137414
vt 0.265165 0.102569
vt 0.310142 0.084174
vt 0.364306 0.068873
vt 0.354809 0.707724
vt 0.292332 0.695321
vt 0.242624 0.665398
vt 0.222893 0.622317
vt 0.203174 0.566462
vt 0.199226 0.511434
vt 0.297863 0.467686
vt 0.223441 0.463446
vt 0.361366 0.474298
vt 0.406578 0.306911
vt 0.486494 0.093132
vt 0.487084 0.134883
vt 0.420777 0.125758
vt 0.437144 0.068255
vt 0.485496 0.177524
vt 0.407478 0.174778
vt 0.039706 0.387535
vt 0.032114 0.327565
vt 0.102492 0.320615
vt 0.088106 0.391268
vt 0.025075 0.274903
vt 0.111458 0.261142
vt 0.576020 0.053958
vt 0.577358 0.108380
vt 0.505592 0.022012
vt 0.571876 0.164146
vt 0.560620 0.220994
vt 0.560022 0.267739
vt 0.511754 0.253348
vt 0.412231 0.244363
vt 0.000450 0.202880
vt 0.094958 0.202448
vt 0.172331 0.197614
vt 0.192993 0.216583
vt 0.198326 0.249345
vt 0.411166 0.980218
vt 0.342762 0.987718
vt 0.266397 0.899504
vt 0.392160 0.900435
vt 0.097827 0.462512
vt 0.173944 0.395398
vt 0.145043 0.467570
vt 0.057613 0.455311
vt 0.444369 0.000450
vt 0.287772 0.883766
vt 0.327482 0.785578
vt 0.383509 0.777432
vt 0.383509 0.888404
vt 0.075721 0.936120
vt 0.076258 0.904591
vt 0.129205 0.883013
vt 0.130879 0.922531
vt 0.727137 0.425172
vt 0.836590 0.443467
vt 0.834417 0.529565
vt 0.723265 0.560591
vt 0.573476 0.872289
vt 0.535705 0.864098
vt 0.548221 0.800140
vt 0.571770 0.785552
vt 0.205330 0.725065
vt 0.276295 0.703407
vt 0.279147 0.824205
vt 0.193185 0.774164
vt 0.840218 0.420630
vt 0.745940 0.337390
vt 0.741405 0.261669
vt 0.840218 0.299799
vt 0.003219 0.959085
vt 0.000450 0.925594
vt 0.003907 0.897041
vt 0.067946 0.865609
vt 0.130879 0.838121
vt 0.494276 0.848643
vt 0.504817 0.798057
vt 0.519349 0.728809
vt 0.542581 0.718641
vt 0.573476 0.672626
vt 0.836590 0.642693
vt 0.762895 0.696540
vt 0.426538 0.516225
vt 0.558739 0.572781
vt 0.457435 0.671726
vt 0.407478 0.583679
vt 0.439354 0.441229
vt 0.558739 0.437307
vt 0.249362 0.915309
vt 0.161190 0.834724
vt 0.011345 0.683890
vt 0.011264 0.625274
vt 0.069566 0.620447
vt 0.076585 0.683151
vt 0.000450 0.564326
vt 0.068685 0.551881
vt 0.124209 0.616463
vt 0.126091 0.680475
vt 0.118997 0.551049
vt 0.341208 0.384506
vt 0.406578 0.387976
vt 0.303799 0.390281
vt 0.365269 0.399836
vt 0.206286 0.388876
vt 0.013518 0.468470
vt 0.075952 0.485876
vt 0.113546 0.497736
vt 0.159166 0.501308
vt 0.186260 0.544539
vt 0.197962 0.613033
vt 0.191900 0.688814
vt 0.123985 0.740221
vt 0.169197 0.755193
vt 0.083146 0.743364
vt 0.021759 0.755193
vt 0.517805 0.370779
vt 0.508930 0.412328
vt 0.457437 0.436406
vt 0.444499 0.387673
vt 0.606999 0.806018
vt 0.625781 0.749574
vt 0.686183 0.777571
vt 0.657154 0.833395
vt 0.013770 0.056957
vt 0.024770 0.007970
vt 0.099365 0.000450
vt 0.105757 0.066967
vt 0.735783 0.000450
vt 0.740505 0.061752
vt 0.676584 0.074577
vt 0.662797 0.012396
vt 0.577358 0.322353
vt 0.365269 0.776532
vt 0.323866 0.765908
vt 0.293027 0.032663
vt 0.344696 0.000450
vt 0.585776 0.716818
vt 0.578258 0.102113
vt 0.414771 0.831656
vt 0.407478 0.768662
vt 0.064601 0.765208
vt 0.130193 0.756093
vt 0.198326 0.127610
s 1
usemtl Tree_textures
f 27/1/1 13/2/2 21/3/3 29/4/4
f 13/2/2 3/5/5 15/6/6 21/3/3
f 21/3/3 15/6/6 7/7/7 12/8/8
f 29/4/4 21/3/3 12/8/8 26/9/9
f 26/9/9 12/8/8 22/10/10 30/11/11
f 12/8/8 7/7/7 18/12/12 22/10/10
f 22/13/10 18/14/12 5/15/13 14/16/14
f 30/17/11 22/13/10 14/16/14 28/18/15
f 25/19/16 11/20/17 23/21/18 31/22/19
f 11/20/17 1/23/20 16/24/21 23/21/18
f 23/25/18 16/26/21 3/5/5 13/2/2
f 31/27/19 23/25/18 13/2/2 27/1/1
f 28/18/15 14/16/14 24/28/22 32/29/23
f 14/16/14 5/15/13 19/30/24 24/28/22
f 24/28/22 19/30/24 1/23/20 11/20/17
f 32/29/23 24/28/22 11/20/17 25/19/16
f 10/31/25 32/29/23 25/19/16 2/32/26
f 6/33/27 28/18/15 32/29/23 10/31/25
f 20/34/28 31/27/19 27/1/1 4/35/29
f 2/32/26 25/19/16 31/22/19 20/36/28
f 9/37/30 30/17/11 28/18/15 6/33/27
f 8/38/31 26/9/9 30/11/11 9/39/30
f 17/40/32 29/4/4 26/9/9 8/38/31
f 4/35/29 27/1/1 29/4/4 17/40/32
f 56/41/33 42/42/34 50/43/35 58/44/36
f 42/42/34 34/45/37 44/46/38 50/43/35
f 50/43/35 44/46/38 37/47/39 41/48/40
f 58/44/36 50/43/35 41/48/40 55/49/41
f 55/49/41 41/48/40 51/50/42 59/51/43
f 41/48/40 37/47/39 47/52/44 51/50/42
f 51/53/42 47/54/44 36/55/45 43/56/46
f 59/57/43 51/53/42 43/56/46 57/58/47
f 54/59/48 40/60/49 52/61/50 60/62/51
f 40/60/49 33/63/52 45/64/53 52/61/50
f 52/65/50 45/66/53 34/45/37 42/42/34
f 60/67/51 52/65/50 42/42/34 56/41/33
f 57/58/47 43/56/46 53/68/54 61/69/55
f 43/56/46 36/55/45 48/70/56 53/68/54
f 53/68/54 48/70/56 33/63/52 40/60/49
f 61/69/55 53/68/54 40/60/49 54/59/48
f 17/40/32 61/69/55 54/59/48 4/35/29
f 8/38/31 57/58/47 61/69/55 17/40/32
f 49/71/57 60/67/51 56/41/33 35/72/58
f 4/35/29 54/59/48 60/62/51 49/73/57
f 39/74/59 59/57/43 57/58/47 8/38/31
f 38/75/60 55/49/41 59/51/43 39/76/59
f 46/77/61 58/44/36 55/49/41 38/75/60
f 35/72/58 56/41/33 58/44/36 46/77/61
f 74/78/62 66/79/63 69/80/64 75/81/65
f 66/79/63 49/82/57 35/83/58 69/80/64
f 64/84/66 62/85/67 68/86/68 70/87/69
f 70/87/69 68/86/68 63/88/70 67/89/71
f 73/90/72 65/91/73 71/92/74 76/93/75
f 65/91/73 20/94/28 4/95/29 71/92/74
f 71/92/74 4/95/29 49/96/57 66/97/63
f 76/93/75 71/92/74 66/97/63 74/98/62
f 72/99/76 2/100/26 20/101/28 65/102/73
f 77/103/77 72/99/76 65/102/73 73/104/72
f 64/105/78 77/106/77 73/107/72 62/108/79
f 68/109/80 76/110/75 74/111/62 63/112/81
f 62/113/79 73/114/72 76/110/75 68/109/80
f 63/115/81 74/116/62 75/117/65 67/118/82
f 9/39/30 6/119/27 78/120/83 8/38/31
f 8/121/31 78/122/83 38/75/60 39/76/59
f 102/123/84 88/124/85 96/125/86 104/126/87
f 88/124/85 80/127/88 90/128/89 96/125/86
f 96/125/86 90/128/89 83/129/90 87/130/91
f 104/126/87 96/125/86 87/130/91 101/131/92
f 101/131/92 87/130/91 97/132/93 105/133/94
f 87/130/91 83/129/90 93/134/95 97/132/93
f 97/135/93 93/136/95 82/137/96 89/138/97
f 105/139/94 97/135/93 89/138/97 103/140/98
f 100/141/99 86/142/100 98/143/101 106/144/102
f 86/142/100 79/145/103 91/146/104 98/143/101
f 98/147/101 91/148/104 80/127/88 88/124/85
f 106/149/102 98/147/101 88/124/85 102/123/84
f 103/140/98 89/138/97 99/150/105 107/151/106
f 89/138/97 82/137/96 94/152/107 99/150/105
f 99/150/105 94/152/107 79/145/103 86/142/100
f 107/151/106 99/150/105 86/142/100 100/141/99
f 46/77/61 107/151/106 100/141/99 35/72/58
f 38/75/60 103/140/98 107/151/106 46/77/61
f 95/153/108 106/149/102 102/123/84 81/154/109
f 35/72/58 100/141/99 106/144/102 95/155/108
f 85/156/110 105/139/94 103/140/98 38/75/60
f 84/157/111 101/131/92 105/133/94 85/158/110
f 92/159/112 104/126/87 101/131/92 84/157/111
f 81/154/109 102/123/84 104/126/87 92/159/112
f 128/160/113 115/161/114 122/162/115 130/163/116
f 115/161/114 109/164/117 117/165/118 122/162/115
f 122/162/115 117/165/118 111/166/119 114/167/120
f 130/163/116 122/162/115 114/167/120 127/168/121
f 127/168/121 114/167/120 123/169/122 131/170/123
f 114/167/120 111/166/119 119/171/124 123/169/122
f 123/172/122 119/173/124 110/174/125 116/175/126
f 131/176/123 123/172/122 116/175/126 129/177/127
f 126/178/128 113/179/129 124/180/130 132/181/131
f 113/179/129 108/182/132 118/183/133 124/180/130
f 124/184/130 118/185/133 109/164/117 115/161/114
f 132/186/131 124/184/130 115/161/114 128/160/113
f 129/177/127 116/175/126 125/187/134 133/188/135
f 116/175/126 110/174/125 120/189/136 125/187/134
f 125/187/134 120/189/136 108/182/132 113/179/129
f 133/188/135 125/187/134 113/179/129 126/178/128
f 92/159/112 133/188/135 126/178/128 81/154/109
f 84/157/111 129/177/127 133/188/135 92/159/112
f 121/190/137 132/186/131 128/160/113 2/32/26
f 81/154/109 126/178/128 132/181/131 121/191/137
f 112/192/138 131/176/123 129/177/127 84/157/111
f 6/33/27 127/168/121 131/170/123 112/193/138
f 10/31/25 130/163/116 127/168/121 6/33/27
f 2/32/26 128/160/113 130/163/116 10/31/25
f 141/194/139 137/195/140 72/99/76 77/103/77
f 137/195/140 121/196/137 2/100/26 72/99/76
f 67/89/71 134/197/141 138/198/142 70/87/69
f 70/87/69 138/198/142 135/199/143 64/84/66
f 140/200/144 136/201/145 139/202/146 142/203/147
f 136/201/145 95/204/108 81/205/109 139/202/146
f 139/202/146 81/205/109 121/206/137 137/207/140
f 142/203/147 139/202/146 137/207/140 141/208/139
f 69/80/64 35/83/58 95/209/108 136/210/145
f 75/81/65 69/80/64 136/210/145 140/211/144
f 67/118/82 75/117/65 140/212/144 134/213/148
f 138/214/149 142/215/147 141/216/139 135/217/150
f 134/218/148 140/219/144 142/215/147 138/214/149
f 135/220/150 141/221/139 77/106/77 64/105/78
f 85/158/110 38/222/60 78/223/83 84/157/111
f 84/224/111 78/225/83 6/33/27 112/193/138
f 187/226/151 188/227/152 191/228/153 190/229/154
f 188/227/152 189/230/155 192/231/156 191/228/153
f 190/232/154 191/233/153 194/234/157 193/235/158
f 191/233/153 192/236/156 195/237/159 194/234/157
f 143/238/160 154/239/161 187/226/151 153/240/162
f 154/239/161 155/241/163 188/227/152 187/226/151
f 155/241/163 156/242/164 189/230/155 188/227/152
f 156/242/164 144/243/165 157/244/166 189/230/155
f 189/230/155 157/244/166 158/245/167 192/231/156
f 192/236/156 158/246/167 159/247/168 195/237/159
f 195/237/159 159/247/168 146/248/169 160/249/170
f 194/234/157 195/237/159 160/249/170 161/250/171
f 193/235/158 194/234/157 161/250/171 162/251/172
f 151/252/173 193/253/158 162/254/172 145/255/174
f 152/256/175 190/232/154 193/235/158 151/257/173
f 153/240/162 187/226/151 190/229/154 152/258/175
f 196/259/176 197/260/177 200/261/178 199/262/179
f 197/260/177 198/263/180 201/264/181 200/261/178
f 199/265/179 200/266/178 203/267/182 202/268/183
f 200/266/178 201/269/181 204/270/184 203/267/182
f 145/255/174 162/254/172 196/259/176 165/271/185
f 162/254/172 161/272/171 197/260/177 196/259/176
f 161/272/171 160/273/170 198/263/180 197/260/177
f 160/273/170 146/274/169 166/275/186 198/263/180
f 198/263/180 166/275/186 167/276/187 201/264/181
f 201/269/181 167/277/187 168/278/188 204/270/184
f 204/270/184 168/278/188 150/279/189 169/280/190
f 203/267/182 204/270/184 169/280/190 170/281/191
f 202/268/183 203/267/182 170/281/191 171/282/192
f 163/283/193 202/268/183 171/282/192 149/284/194
f 164/285/195 199/265/179 202/268/183 163/283/193
f 165/271/185 196/259/176 199/262/179 164/286/195
f 205/287/196 206/288/197 209/289/198 208/290/199
f 206/288/197 207/291/200 210/292/201 209/289/198
f 208/293/199 209/294/198 212/295/202 211/296/203
f 209/294/198 210/297/201 213/298/204 212/295/202
f 149/299/194 171/300/192 205/287/196 174/301/205
f 171/300/192 170/302/191 206/288/197 205/287/196
f 170/302/191 169/303/190 207/291/200 206/288/197
f 169/303/190 150/304/189 175/305/206 207/291/200
f 207/291/200 175/305/206 176/306/207 210/292/201
f 210/297/201 176/307/207 177/308/208 213/298/204
f 213/298/204 177/308/208 148/309/209 178/310/210
f 212/295/202 213/298/204 178/310/210 179/311/211
f 211/312/203 212/313/202 179/314/211 180/315/212
f 172/316/213 211/296/203 180/317/212 147/318/214
f 173/319/215 208/293/199 211/296/203 172/316/213
f 174/301/205 205/287/196 208/290/199 173/320/215
f 214/321/216 215/322/217 218/323/218 217/324/219
f 215/325/217 216/326/220 219/327/221 218/328/218
f 217/329/219 218/330/218 221/331/222 220/332/223
f 218/333/218 219/334/221 222/335/224 221/336/222
f 147/337/214 180/338/212 214/339/216 183/340/225
f 180/341/212 179/342/211 215/343/217 214/344/216
f 179/345/211 178/346/210 216/326/220 215/325/217
f 178/346/210 148/347/209 184/348/226 216/326/220
f 216/326/220 184/348/226 185/349/227 219/327/221
f 219/334/221 185/350/227 186/351/228 222/335/224
f 222/335/224 186/351/228 144/352/165 156/353/164
f 221/336/222 222/335/224 156/353/164 155/354/163
f 220/332/223 221/331/222 155/355/163 154/356/161
f 181/357/229 220/358/223 154/359/161 143/360/160
f 182/361/230 217/362/219 220/358/223 181/357/229
f 183/340/225 214/339/216 217/363/219 182/364/230
f 223/365/231 224/366/232 227/367/233 226/368/234
f 224/366/232 225/369/235 228/370/236 227/367/233
f 226/368/234 227/367/233 230/371/237 229/372/238
f 227/367/233 228/370/236 231/373/239 230/371/237
f 145/255/174 165/271/185 223/374/231 151/252/173
f 165/271/185 164/286/195 224/375/232 223/374/231
f 164/285/195 163/283/193 225/376/235 224/377/232
f 163/283/193 149/284/194 174/378/205 225/376/235
f 225/369/235 174/379/205 173/380/215 228/370/236
f 228/370/236 173/380/215 172/381/213 231/373/239
f 231/373/239 172/381/213 147/382/214 183/383/225
f 230/371/237 231/373/239 183/383/225 182/384/230
f 229/372/238 230/371/237 182/384/230 181/385/229
f 153/386/162 229/372/238 181/385/229 143/387/160
f 152/388/175 226/368/234 229/372/238 153/386/162
f 151/389/173 223/365/231 226/368/234 152/388/175
f 232/390/240 233/391/241 236/392/242 235/393/243
f 233/394/241 234/395/244 237/396/245 236/397/242
f 235/398/243 236/399/242 239/400/246 238/401/247
f 236/402/242 237/403/245 240/404/248 239/405/246
f 150/304/189 168/406/188 232/390/240 175/305/206
f 168/278/188 167/277/187 233/407/241 232/408/240
f 167/276/187 166/275/186 234/409/244 233/410/241
f 166/411/186 146/248/169 159/247/168 234/395/244
f 234/395/244 159/247/168 158/246/167 237/396/245
f 237/403/245 158/245/167 157/244/166 240/404/248
f 240/404/248 157/244/166 144/243/165 186/412/228
f 239/413/246 240/414/248 186/351/228 185/350/227
f 238/415/247 239/416/246 185/349/227 184/348/226
f 177/308/208 238/401/247 184/417/226 148/309/209
f 176/307/207 235/398/243 238/401/247 177/308/208
f 175/305/206 232/390/240 235/393/243 176/306/207
